<svg width="354" height="354" xmlns="http://www.w3.org/2000/svg" xmlns:xlink="http://www.w3.org/1999/xlink" xml:space="preserve" overflow="hidden"><g transform="translate(-3176 -1582)"><path d="M3251.78 1759.07C3251.78 1703.01 3297.21 1657.57 3353.28 1657.57 3409.34 1657.57 3454.78 1703.01 3454.78 1759.07 3454.78 1815.14 3409.34 1860.57 3353.28 1860.57 3297.21 1860.57 3251.78 1815.14 3251.78 1759.07Z" stroke="#868e96" stroke-width="70.8984" stroke-miterlimit="8" fill="none" fill-rule="evenodd"/><path d="M3316.26 1582.07 3394.26 1582.07 3394.26 1660.07 3316.26 1660.07Z" fill="#868e96" fill-rule="evenodd"/><path d="M3176.28 1718.08 3258.28 1718.08 3258.28 1800.08 3176.28 1800.08Z" fill="#868e96" fill-rule="evenodd"/><path d="M3310.27 1664.6 3253.8 1721.07 3197.27 1664.6 3253.8 1608.07Z" fill="#868e96" fill-rule="evenodd"/><path d="M3439.53 1734.07 3383.28 1677.33 3449.03 1611.07 3505.28 1667.76Z" fill="#868e96" fill-rule="evenodd"/><path d="M3311.26 1858.08 3389.26 1858.08 3389.26 1935.08 3311.26 1935.08Z" fill="#868e96" fill-rule="evenodd"/><path d="M3447.28 1718.08 3529.28 1718.08 3529.28 1800.08 3447.28 1800.08Z" fill="#868e96" fill-rule="evenodd"/><path d="M3395.27 1852.55 3451.77 1796.07 3508.27 1852.55 3451.77 1909.07Z" fill="#868e96" fill-rule="evenodd"/><path d="M3266.58 1784.07 3323.27 1840.78 3257 1907.07 3200.27 1850.36Z" fill="#868e96" fill-rule="evenodd"/></g></svg>